<svg width="25" height="26" viewBox="0 0 25 26" fill="none" xmlns="http://www.w3.org/2000/svg">
<path d="M22.9219 14.967L24.9737 5.93922C25.1218 5.2874 24.6263 4.66669 23.9579 4.66669H6.91007L6.51224 2.72182C6.41311 2.23705 5.98655 1.88892 5.49171 1.88892H1.04167C0.466363 1.88892 0 2.35528 0 2.93058V3.62503C0 4.20033 0.466363 4.66669 1.04167 4.66669H4.07478L7.12374 19.5727C6.39431 19.9922 5.90278 20.7788 5.90278 21.6806C5.90278 23.0229 6.99097 24.1111 8.33333 24.1111C9.67569 24.1111 10.7639 23.0229 10.7639 21.6806C10.7639 21.0003 10.4841 20.3857 10.0337 19.9445H19.1329C18.6826 20.3857 18.4028 21.0003 18.4028 21.6806C18.4028 23.0229 19.491 24.1111 20.8333 24.1111C22.1757 24.1111 23.2639 23.0229 23.2639 21.6806C23.2639 20.7183 22.7045 19.8867 21.8933 19.4929L22.1327 18.4392C22.2809 17.7874 21.7854 17.1667 21.117 17.1667H9.46688L9.18281 15.7778H21.9061C22.3925 15.7778 22.8141 15.4413 22.9219 14.967Z" fill="white"/>
</svg>
